<svg width="22" height="15" viewBox="0 0 22 15" fill="none" xmlns="http://www.w3.org/2000/svg">
<path fill-rule="evenodd" clip-rule="evenodd" d="M0.984728 10.7096C0.984728 10.7096 5.00581 14.2061 8.2034 10.7402C8.2034 10.7402 7.66856 10.7392 7.32562 10.4756C7.01264 10.2348 6.88885 9.72931 6.88885 9.72931C6.88885 9.72931 7.88343 9.17306 7.51016 8.75299C7.51016 8.75299 5.31003 8.70918 5.18691 7.38087L6.47934 6.5465C6.47934 6.5465 5.97159 6.79258 5.46903 6.54274C5.46903 6.54274 4.16478 5.60697 4.41358 4.64917L5.50326 4.53777C5.50326 4.53777 3.61278 3.19445 4.14075 2.16204C4.14075 2.16204 4.3227 1.27385 10.5766 5.42622C10.5766 5.42622 11.6791 1.5024 13.7156 0.639476C13.7156 0.639476 14.0541 0.801944 14.0541 0.97469C14.0541 0.97469 14.3431 0.3536 14.7238 0.296018C14.7238 0.296018 15.1842 0.701324 14.8849 0.93212C14.8849 0.93212 15.6596 0.402164 16.0379 0.67103C16.0379 0.67103 16.007 1.14267 14.8932 1.72921C14.8932 1.72921 17.7837 1.88943 18.7926 5.7439C18.7926 5.7439 20.0464 6.19426 21.2228 5.43774C21.2228 5.43774 21.3207 6.00726 19.4935 6.81261C19.4935 6.81261 19.6635 7.08697 21.195 6.87819C21.195 6.87819 21.1832 8.01773 18.76 8.00873C18.76 8.00873 16.7139 13.937 11.7407 14.7531C5.69655 15.745 1.4511 12.7231 0.984728 10.7096Z" fill="white"/>
</svg>
